<svg width="48" height="48" viewBox="0 0 48 48" fill="none" xmlns="http://www.w3.org/2000/svg">
<mask id="mask0_7_215" style="mask-type:luminance" maskUnits="userSpaceOnUse" x="0" y="0" width="48" height="48">
<path d="M48 0H0V48H48V0Z" fill="white"/>
</mask>
<g mask="url(#mask0_7_215)">
<path fill-rule="evenodd" clip-rule="evenodd" d="M24.02 0C10.74 0 0 10.8167 0 24.1983C0 34.895 6.88004 43.9495 16.42 47.1542C17.62 47.3951 18.05 46.6335 18.05 45.9929C18.05 45.4319 18.02 43.509 18.02 41.5055C11.33 42.948 9.93994 38.6209 9.93994 38.6209C8.86994 35.8164 7.28003 35.0956 7.28003 35.0956C5.09003 33.6132 7.43994 33.6132 7.43994 33.6132C9.85994 33.7735 11.14 36.0971 11.14 36.0971C13.28 39.7827 16.74 38.7413 18.13 38.1002C18.33 36.5377 18.97 35.456 19.65 34.8552C14.32 34.2942 8.70996 32.211 8.70996 22.9161C8.70996 20.2719 9.66004 18.1086 11.17 16.4261C10.94 15.8253 10.1 13.3409 11.41 10.0157C11.41 10.0157 13.44 9.3746 18.01 12.4996C19.97 11.9699 21.99 11.7005 24.02 11.6982C26.05 11.6982 28.12 11.979 30.02 12.4996C34.6 9.3746 36.63 10.0157 36.63 10.0157C37.94 13.3409 37.1 15.8253 36.86 16.4261C38.42 18.1086 39.33 20.2719 39.33 22.9161C39.33 32.211 33.72 34.2539 28.35 34.8552C29.23 35.6163 29.98 37.0583 29.98 39.3421C29.98 42.5871 29.95 45.1915 29.95 45.9924C29.95 46.6335 30.38 47.3951 31.58 47.1547C41.12 43.9491 48 34.895 48 24.1983C48.04 10.8167 37.26 0 24.02 0Z" fill="#828282"/>
</g>
</svg>
