<svg width="48" height="37" viewBox="0 0 48 37" fill="none" xmlns="http://www.w3.org/2000/svg">
<path d="M40.6342 3.03268C37.5752 1.62968 34.2943 0.594677 30.8643 0.00267699C30.8013 -0.00932301 30.7392 0.0196669 30.7072 0.0766669C30.2852 0.827667 29.8172 1.80667 29.4902 2.57568C25.8012 2.02367 22.1302 2.02367 18.5172 2.57568C18.1892 1.78967 17.7052 0.827667 17.2812 0.0766669C17.2492 0.0216669 17.1872 -0.00732301 17.1242 0.00267699C13.6962 0.592677 10.4152 1.62768 7.35424 3.03268C7.32724 3.04468 7.30525 3.06368 7.29025 3.08868C1.06725 12.3847 -0.637765 21.4527 0.198235 30.4087C0.202235 30.4527 0.227223 30.4947 0.261223 30.5217C4.36622 33.5367 8.34325 35.3667 12.2472 36.5797C12.3092 36.5987 12.3752 36.5767 12.4152 36.5247C13.3382 35.2637 14.1612 33.9347 14.8672 32.5367C14.9092 32.4547 14.8692 32.3577 14.7842 32.3247C13.4782 31.8297 12.2352 31.2257 11.0392 30.5407C10.9452 30.4847 10.9372 30.3497 11.0242 30.2847C11.2762 30.0967 11.5282 29.9007 11.7682 29.7027C11.8112 29.6657 11.8722 29.6587 11.9232 29.6817C19.7792 33.2677 28.2832 33.2677 36.0462 29.6817C36.0972 29.6567 36.1582 29.6637 36.2032 29.7007C36.4432 29.8987 36.6952 30.0967 36.9482 30.2847C37.0352 30.3497 37.0302 30.4847 36.9352 30.5407C35.7392 31.2397 34.4962 31.8297 33.1892 32.3227C33.1042 32.3557 33.0662 32.4547 33.1082 32.5367C33.8292 33.9327 34.6523 35.2617 35.5583 36.5227C35.5962 36.5767 35.6642 36.5987 35.7262 36.5797C39.6483 35.3667 43.6252 33.5367 47.7312 30.5217C47.7672 30.4947 47.7902 30.4547 47.7932 30.4107C48.7942 20.0567 46.1173 11.0627 40.6963 3.08967C40.6833 3.06367 40.6612 3.04468 40.6342 3.03268ZM16.0402 24.9557C13.6752 24.9557 11.7262 22.7847 11.7262 20.1177C11.7262 17.4517 13.6372 15.2797 16.0402 15.2797C18.4622 15.2797 20.3922 17.4707 20.3542 20.1177C20.3542 22.7847 18.4432 24.9557 16.0402 24.9557ZM31.9893 24.9557C29.6252 24.9557 27.6762 22.7847 27.6762 20.1177C27.6762 17.4517 29.5872 15.2797 31.9893 15.2797C34.4113 15.2797 36.3412 17.4707 36.3032 20.1177C36.3032 22.7847 34.4113 24.9557 31.9893 24.9557Z" fill="#828282"/>
</svg>
