<svg width="47" height="42" viewBox="0 0 47 42" fill="none" xmlns="http://www.w3.org/2000/svg">
<path d="M10.058 2.7892C15.377 6.8392 21.099 15.0512 23.2 19.4582C25.301 15.0522 31.023 6.8392 36.342 2.7892C40.181 -0.133799 46.4 -2.39481 46.4 4.80119C46.4 6.23819 45.588 16.8722 45.111 18.5992C43.455 24.6012 37.42 26.1322 32.051 25.2062C41.435 26.8252 43.822 32.1902 38.667 37.5562C28.876 47.7452 24.594 34.9992 23.496 31.7332C23.295 31.1342 23.201 30.8542 23.2 31.0922C23.198 30.8542 23.104 31.1342 22.903 31.7332C21.806 34.9992 17.525 47.7452 7.73303 37.5562C2.57703 32.1902 4.964 26.8252 14.349 25.2062C8.98 26.1322 2.945 24.6012 1.289 18.5992C0.812001 16.8722 0 6.23719 0 4.80119C0 -2.39481 6.21998 -0.133799 10.058 2.7892Z" fill="#828282"/>
</svg>
